<svg width="375" height="400" viewBox="0 0 375 400" fill="none" xmlns="http://www.w3.org/2000/svg">
<path d="M70.3335 42.75H303.667C316.928 42.75 329.645 48.0178 339.022 57.3947C348.399 66.7715 353.667 79.4892 353.667 92.75V226.083C353.667 239.344 348.399 252.062 339.022 261.439C329.645 270.815 316.928 276.083 303.667 276.083H187.7L80.3002 356.217C77.8205 358.067 74.8748 359.19 71.7929 359.461C68.711 359.732 65.6145 359.14 62.8501 357.751C60.0857 356.361 57.7625 354.23 56.1406 351.596C54.5187 348.961 53.6622 345.927 53.6668 342.833V276.067C44.8263 276.067 36.3478 272.555 30.0966 266.304C23.8454 260.052 20.3335 251.574 20.3335 242.733V92.7333C20.3335 79.4725 25.6013 66.7548 34.9782 57.378C44.355 48.0012 57.0727 42.75 70.3335 42.75Z" fill="white" fill-opacity="0.03"/>
</svg>
